<?xml version="1.0" encoding="UTF-8"?>
<svg width="24px" height="24px" viewBox="0 0 24 24" version="1.1" xmlns="http://www.w3.org/2000/svg">
    <g stroke="none" stroke-width="1" fill="none" fill-rule="evenodd">
        <path d="M3,3 L21,3 C21.5522847,3 22,3.44771525 22,4 L22,20 C22,20.5522847 21.5522847,21 21,21 L3,21 C2.44771525,21 2,20.5522847 2,20 L2,4 C2,3.44771525 2.44771525,3 3,3 Z M4,5 L4,19 L20,19 L20,5 L4,5 Z" fill="#4361EE"/>
        <path d="M7,7 L17,7 L17,9 L7,9 L7,7 Z M7,11 L17,11 L17,13 L7,13 L7,11 Z M7,15 L17,15 L17,17 L7,17 L7,15 Z" fill="#4361EE"/>
    </g>
</svg> 